#N canvas 158 22 1332 998 10;
#X obj 94 478 hsl 200 20 0 1 0 0 empty empty crossfade 20 10 0 14 -257472
-1 -1 15264 1;
#X obj 203 568 *~;
#X obj 91 537 -;
#X obj 91 564 *~;
#X obj 145 616 +~;
#X msg 91 517 1 \$1;
#X obj 144 789 *~;
#X obj 158 639 vsl 15 128 0 1 0 0 empty empty osc 0 -8 0 8 -262144
-1 -1 0 1;
#X floatatom 107 334 5 0 0 0 - - -;
#X floatatom 220 334 5 0 0 0 - - -;
#X obj 1148 -231 pddp/dsp;
#X obj 673 65 maxlib/scale 0 1 0 10;
#X text 27 159 axis examples: Y = tilt (lean back or forward) X = twist(like
turning a doorknob) Z = lift (picking up or dropping the device);
#X obj 1037 -52 bng 15 250 50 0 empty empty empty 0 -6 0 8 -262144
-1 -1;
#X obj 1036 125 bng 15 250 50 0 empty empty empty 0 -6 0 8 -262144
-1 -1;
#X obj 1036 61 * -1;
#X floatatom 1036 82 5 0 0 0 - - -;
#X floatatom 673 -57 5 0 0 0 - - -;
#X floatatom 673 88 5 0 0 0 - - -;
#X obj 716 721 dac~;
#X obj 716 695 *~;
#X text 715 738 hear it;
#X obj 731 558 vsl 25 128 0 1 0 0 empty empty gain 0 -8 0 8 -262144
-1 -1 8500 1;
#X obj 107 379 osc~ 330;
#X msg 977 380 1;
#X text 1012 379 starts playback;
#X obj 1019 522 vsl 15 128 0 1 0 0 empty empty sample_dry 0 -8 0 8
-262144 -1 -1 5800 1;
#X obj 1004 662 *~;
#X obj 977 327 t b b;
#X obj 1004 455 +~;
#X obj 698 333 r~ audio;
#X obj 1128 664 *~;
#X obj 1143 524 vsl 15 128 0 1 0 0 empty empty sample_wet 0 -8 0 8
-262144 -1 -1 0 1;
#X obj 1004 687 s~ audio_sample;
#X obj 1128 688 s~ audio_sample_delay;
#X obj 698 354 r~ audio_sample;
#X floatatom 1203 438 5 0 0 0 - - -;
#X text 1201 416 delay time (s);
#X obj 1128 487 delay~ 522050;
#X obj 1203 461 * 44100;
#X obj 1004 413 readsf~ 2;
#X text 103 316 FREQUENCY 1;
#X text 215 316 FREQUENCY 2;
#X obj 1037 -103 r z;
#X obj 1036 40 r z;
#X obj 673 -103 r x;
#X obj 299 379 phasor~;
#X obj 354 379 cycle~;
#X text 1033 -37 bang;
#X text 1031 140 bang;
#X text 1032 20 Lower Threshold------------;
#X text 1035 -123 Upper Threshold------------;
#X text 709 -80 Multiplication (magnification);
#X text 741 -43 Other operators;
#X obj 743 -23 +;
#X obj 772 -23 -;
#X obj 801 -23 * -1;
#X text 834 -24 etc.;
#X text 671 -123 Mathematical Operators -------------------;
#X obj 673 40 r x;
#X text 670 -156 SCALING DATA;
#X text 1036 -156 TRIGGERING EVENTS;
#X text 671 20 Specified Mappings -----------------------;
#X floatatom 673 171 5 0 0 0 - - -;
#X obj 673 123 r x;
#X text 715 87 map 0 to 0 map 1 to 10;
#X text 716 171 map 0.25 to 200 \; map 0.7 to 600;
#X obj 698 374 r~ audio_sample_delay;
#X obj 144 814 s~ audio;
#X obj 698 495 freeverb~;
#X obj 718 444 hsl 200 20 0 1 0 0 empty empty reverb_mix 20 10 0 14
-257472 -1 -1 0 1;
#N canvas 613 434 450 300 reverb 0;
#X obj 119 -107 -;
#X msg 119 -127 1 \$1;
#X obj 68 -183 inlet;
#X obj 77 33 outlet;
#X msg 58 -44 wet \$1;
#X msg 120 -44 dry \$1;
#X connect 0 0 5 0;
#X connect 1 0 0 0;
#X connect 2 0 1 0;
#X connect 2 0 4 0;
#X connect 4 0 3 0;
#X connect 5 0 3 0;
#X restore 715 469 pd reverb;
#X text 713 425 dry;
#X text 901 427 wet;
#X obj 741 399 loadbang;
#X msg 741 422 0;
#X obj 716 523 +~;
#X text 697 295 MAIN OUTPUT;
#X text 975 295 PLAY A SAMPLE;
#X text 105 288 XFADE BETWEEN TWO FREQUENCIES;
#X text 31 115 RAW VALUES------------^;
#X floatatom 350 -7 5 0 0 0 - - -;
#X floatatom 399 -7 5 0 0 0 - - -;
#X obj 350 20 vsl 15 75 0 1 0 0 empty empty x 0 85 0 10 -262144 -1
-1 2771 1;
#X obj 399 20 vsl 15 75 0 1 0 0 empty empty y 0 85 0 10 -262144 -1
-1 3057 1;
#X floatatom 449 -7 5 0 0 0 - - -;
#X obj 450 20 vsl 15 75 0 1 0 0 empty empty z 0 85 0 10 -262144 -1
-1 3664 1;
#X obj 413 -158 tgl 15 0 empty empty empty 17 7 0 10 -262144 -1 -1
0 1;
#X floatatom 434 -158 5 2 20 0 - - -;
#X obj 455 -107 tgl 15 0 empty empty empty 17 7 0 10 -262144 -1 -1
0 1;
#X obj 368 18 s x;
#X obj 417 18 s y;
#X obj 498 -23 s z;
#X text 410 -177 smoothing on/off;
#X text 470 -159 amount (default 3);
#N canvas 81 543 781 386 datacalibration 1;
#X floatatom -55 252 5 0 0 0 - - -;
#X floatatom 142 254 5 0 0 0 - - -;
#X obj -77 326 switch 2;
#X obj -77 276 tgl 15 0 empty empty empty 17 7 0 10 -262144 -1 -1 0
1;
#X obj -77 301 + 1;
#X obj -32 302 average 3;
#X floatatom 19 277 5 2 20 0 - - -;
#X obj -246 194 inlet;
#X text -246 176 raw x;
#X obj -55 194 inlet;
#X obj 142 196 inlet;
#X text -55 176 raw y;
#X text 142 178 raw z;
#X obj 233 29 inlet;
#X text 233 10 smoothing on/off;
#X obj 273 44 inlet;
#X obj -77 357 outlet;
#X obj -268 329 switch 2;
#X obj -268 279 tgl 15 0 empty empty empty 17 7 0 10 -262144 -1 -1
0 1;
#X obj -268 304 + 1;
#X obj -223 305 average 3;
#X floatatom -172 280 5 2 20 0 - - -;
#X obj -268 360 outlet;
#X floatatom -246 254 5 0 0 0 - - -;
#X obj 120 328 switch 2;
#X obj 120 278 tgl 15 0 empty empty empty 17 7 0 10 -262144 -1 -1 0
1;
#X obj 120 303 + 1;
#X obj 165 304 average 3;
#X floatatom 216 279 5 2 20 0 - - -;
#X obj 120 359 outlet;
#X text 344 230 SCALING;
#X text 344 280 AVERAGING;
#X text 344 357 OUTPUT;
#X text 343 194 INPUT;
#X obj -28 116 sel 1;
#X obj -169 116 sel 0;
#X obj -28 96 tgl 15 0 empty empty empty 17 7 0 10 -262144 -1 -1 0
1;
#X text 273 25 amount;
#X obj 336 75 inlet;
#X text 335 55 sensitivity on/off;
#X text -54 77 SENSITIVITY;
#X text -131 117 Low;
#X text 13 116 High;
#X text -244 13 DATA CALIBRATION Takes three analog inputs \, scales
them appropriately \, and also provides the option to smooth the data
via averaging.;
#X obj -246 230 maxlib/scale 0.03 0.84 0 1;
#X obj -55 230 maxlib/scale 0.03 0.84 0 1;
#X obj 142 230 maxlib/scale 0.03 0.84 0 1;
#X msg -169 143 0.03;
#X msg -144 143 0.84;
#X msg -102 144 0.03;
#X msg -72 144 0.84;
#X msg -28 143 0.23;
#X msg 2 143 0.64;
#X msg 43 144 0.23;
#X msg 73 144 0.64;
#X obj 190 59 t a;
#X msg 189 37 0;
#X obj 169 12 loadbang;
#X connect 2 0 16 0;
#X connect 3 0 4 0;
#X connect 4 0 2 0;
#X connect 5 0 2 2;
#X connect 6 0 5 1;
#X connect 7 0 44 0;
#X connect 9 0 45 0;
#X connect 10 0 46 0;
#X connect 13 0 55 0;
#X connect 15 0 6 0;
#X connect 15 0 21 0;
#X connect 15 0 28 0;
#X connect 17 0 22 0;
#X connect 18 0 19 0;
#X connect 19 0 17 0;
#X connect 20 0 17 2;
#X connect 21 0 20 1;
#X connect 24 0 29 0;
#X connect 25 0 26 0;
#X connect 26 0 24 0;
#X connect 27 0 24 2;
#X connect 28 0 27 1;
#X connect 34 0 51 0;
#X connect 34 0 52 0;
#X connect 34 0 53 0;
#X connect 34 0 54 0;
#X connect 35 0 47 0;
#X connect 35 0 48 0;
#X connect 35 0 49 0;
#X connect 35 0 50 0;
#X connect 36 0 35 0;
#X connect 36 0 34 0;
#X connect 38 0 36 0;
#X connect 44 0 23 0;
#X connect 44 0 17 1;
#X connect 44 0 20 0;
#X connect 45 0 0 0;
#X connect 45 0 5 0;
#X connect 45 0 2 1;
#X connect 46 0 1 0;
#X connect 46 0 24 1;
#X connect 46 0 27 0;
#X connect 47 0 44 3;
#X connect 47 0 45 3;
#X connect 48 0 44 4;
#X connect 48 0 45 4;
#X connect 49 0 46 3;
#X connect 50 0 46 4;
#X connect 51 0 44 3;
#X connect 51 0 45 3;
#X connect 52 0 44 4;
#X connect 52 0 45 4;
#X connect 53 0 46 3;
#X connect 54 0 46 4;
#X connect 55 0 18 0;
#X connect 55 0 3 0;
#X connect 55 0 25 0;
#X connect 56 0 55 0;
#X connect 57 0 56 0;
#X restore 350 -33 pd datacalibration;
#X obj 38 29 vsl 15 60 0.03 0.84 0 0 empty empty x 0 69 0 10 -262144
-1 -1 2209 1;
#X obj 93 29 vsl 15 60 0.03 0.84 0 0 empty empty y 0 69 0 10 -262144
-1 -1 2437 1;
#X obj 149 30 vsl 15 60 0.03 0.84 0 0 empty empty z 0 69 0 10 -262144
-1 -1 2921 1;
#N canvas 36 176 499 396 efficient 0;
#X obj 6 7 inlet;
#X obj 6 50 outlet;
#X obj 54 50 inlet;
#X obj 54 93 outlet;
#X obj 103 93 inlet;
#X obj 103 136 outlet;
#X obj 60 290 receive ARDUINO_TEST_RESET;
#X obj 6 28 mapping/resample 75;
#X obj 54 71 mapping/resample 75;
#X obj 103 114 mapping/resample 75;
#X connect 0 0 7 0;
#X connect 2 0 8 0;
#X connect 4 0 9 0;
#X connect 6 0 7 0;
#X connect 6 0 8 0;
#X connect 6 0 9 0;
#X connect 7 0 1 0;
#X connect 8 0 3 0;
#X connect 9 0 5 0;
#X restore 38 -25 pd efficient values;
#X text 343 114 CALIBRATED VALUES--------^;
#X text 475 -109 On/Off;
#X text 454 -127 Less Sensitive;
#X obj 1036 103 threshold -0.2 -0.3 -0.5 1;
#X obj 91 456 maxlib/scale 0.15 0.6 0 1;
#X obj 33 433 loadbang;
#X msg 33 456 0;
#X obj 38 -104 arduino 2;
#X msg 49 -155 close;
#X msg 48 -132 devices;
#X msg 38 -178 open \$1;
#X obj 38 -77 route analog;
#X obj 38 -52 route 0 1 2;
#X text 97 -155 Remember to close;
#X text 98 -133 To determine port;
#X floatatom 580 540 5 0 1 0 - - -;
#X floatatom 513 514 5 0 0 0 - - -;
#X floatatom 538 537 5 0 0 0 - - -;
#X obj 580 495 vsl 15 35 0 1 0 0 empty empty xfade 0 -8 0 8 -262144
-1 -1 1565 1;
#X obj 513 562 scs_chord;
#X text 293 654 XFADE ABSTRACTION;
#X text 291 663 Abstractions are patches you create and embed into
other patches as if it were an object. This becomes useful when you
are repeatedly using a section of your patch. Note that saving the
abstracted patch will change the object in every single instance it's
used. Abstractions differ from subpatches [pd foo] in that subpatches
are exclusive to their parent. Note: abstracted patches must be in
the same directory as the patch you want to embed them in.;
#X text 106 -202 Port No.;
#X obj 38 -200 hradio 15 1 0 4 empty empty empty 0 -8 0 10 -262144
-1 -1 2;
#X text 39 -233 ARDUINO CONNECT;
#X text 42 -217 0;
#X text 56 -217 1;
#X text 71 -217 2;
#X text 87 -217 3;
#X floatatom 166 -221 5 0 0 0 - - -;
#X obj 673 -80 * 100;
#X obj 673 148 maxlib/scale 0.18 0.54 200 1000;
#X floatatom 446 314 5 0 0 0 - - -;
#X obj 446 266 r y;
#X obj 446 291 maxlib/scale 0.18 0.54 500 600;
#X obj 220 378 osc~ 220;
#X floatatom 439 431 5 0 0 0 - - -;
#X obj 439 383 r x;
#X floatatom 383 509 5 0 0 0 - - -;
#X obj 383 461 r y;
#X obj 439 408 maxlib/scale 0.18 0.54 700 1200;
#X obj 383 486 maxlib/scale 0.18 0.54 1100 1300;
#X obj 1037 -77 threshold 0.69 1 0.5 1;
#X msg 1004 353 open samples/chimp.wav;
#X connect 0 0 1 0;
#X connect 0 0 5 0;
#X connect 1 0 4 1;
#X connect 2 0 3 0;
#X connect 3 0 4 0;
#X connect 4 0 6 0;
#X connect 5 0 2 0;
#X connect 6 0 68 0;
#X connect 7 0 6 1;
#X connect 8 0 23 0;
#X connect 9 0 135 0;
#X connect 11 0 18 0;
#X connect 13 0 28 0;
#X connect 15 0 16 0;
#X connect 16 0 103 0;
#X connect 20 0 19 1;
#X connect 20 0 19 0;
#X connect 22 0 20 1;
#X connect 23 0 3 1;
#X connect 24 0 40 0;
#X connect 26 0 27 1;
#X connect 27 0 33 0;
#X connect 28 0 24 0;
#X connect 28 1 143 0;
#X connect 29 0 27 0;
#X connect 29 0 38 0;
#X connect 30 0 69 0;
#X connect 31 0 34 0;
#X connect 32 0 31 1;
#X connect 35 0 69 0;
#X connect 36 0 39 0;
#X connect 38 0 31 0;
#X connect 39 0 38 1;
#X connect 40 0 29 0;
#X connect 40 1 29 1;
#X connect 43 0 142 0;
#X connect 44 0 15 0;
#X connect 45 0 130 0;
#X connect 59 0 11 0;
#X connect 63 0 8 0;
#X connect 64 0 131 0;
#X connect 67 0 69 0;
#X connect 69 0 76 0;
#X connect 69 1 76 1;
#X connect 70 0 71 0;
#X connect 71 0 69 0;
#X connect 74 0 75 0;
#X connect 75 0 70 0;
#X connect 76 0 20 0;
#X connect 81 0 83 0;
#X connect 82 0 84 0;
#X connect 85 0 86 0;
#X connect 87 0 95 3;
#X connect 88 0 95 4;
#X connect 89 0 95 5;
#X connect 95 0 81 0;
#X connect 95 0 90 0;
#X connect 95 1 82 0;
#X connect 95 1 91 0;
#X connect 95 2 85 0;
#X connect 95 2 92 0;
#X connect 95 2 104 0;
#X connect 99 0 96 0;
#X connect 99 0 95 0;
#X connect 99 1 97 0;
#X connect 99 1 95 1;
#X connect 99 2 98 0;
#X connect 99 2 95 2;
#X connect 103 0 14 0;
#X connect 104 0 0 0;
#X connect 105 0 106 0;
#X connect 106 0 104 0;
#X connect 107 0 111 0;
#X connect 108 0 107 0;
#X connect 109 0 107 0;
#X connect 110 0 107 0;
#X connect 111 0 112 0;
#X connect 112 0 99 0;
#X connect 112 1 99 1;
#X connect 112 2 99 2;
#X connect 115 0 119 2;
#X connect 116 0 119 0;
#X connect 117 0 119 1;
#X connect 118 0 115 0;
#X connect 123 0 110 0;
#X connect 129 0 110 0;
#X connect 130 0 17 0;
#X connect 131 0 63 0;
#X connect 132 0 9 0;
#X connect 133 0 134 0;
#X connect 134 0 132 0;
#X connect 135 0 1 1;
#X connect 136 0 116 0;
#X connect 137 0 140 0;
#X connect 138 0 117 0;
#X connect 139 0 141 0;
#X connect 140 0 136 0;
#X connect 141 0 138 0;
#X connect 142 0 13 0;
#X connect 143 0 40 0;
#X coords 0 0 1 1 85 60 0;
