#N canvas 125 201 957 445 10;
#X floatatom 126 372 5 0 0 0 - - -;
#X obj 117 267 delay 1000;
#X obj 444 110 random 2000;
#X obj 472 139 random 2000;
#X obj 498 194 random 2000;
#X obj 524 223 random 2000;
#X obj 295 24 inlet;
#X text 302 48 generate rhythm;
#X obj 161 46 t b;
#X obj 160 22 inlet;
#X text 187 48 generate pitches;
#X obj 434 25 inlet;
#X text 474 51 generate both;
#X obj 435 49 t b b;
#X obj 65 21 inlet;
#X text 96 46 play;
#X obj 520 25 loadbang;
#X floatatom 22 289 5 0 0 0 - - -;
#X msg 22 242 set \$1;
#X obj 22 218 + 100;
#X obj 22 196 random 15000;
#X floatatom 109 290 5 0 0 0 - - -;
#X msg 109 243 set \$1;
#X obj 109 219 + 100;
#X obj 109 197 random 15000;
#X floatatom 192 290 5 0 0 0 - - -;
#X msg 192 243 set \$1;
#X obj 192 219 + 100;
#X obj 192 197 random 15000;
#X obj 200 267 delay 1300;
#X floatatom 274 290 5 0 0 0 - - -;
#X msg 274 243 set \$1;
#X obj 274 219 + 100;
#X obj 274 197 random 15000;
#X obj 282 267 delay 1700;
#X floatatom 358 291 5 0 0 0 - - -;
#X msg 358 244 set \$1;
#X obj 358 220 + 100;
#X obj 358 198 random 15000;
#X obj 366 268 delay 2200;
#X obj 472 162 +;
#X obj 497 216 +;
#X obj 524 249 +;
#X obj 295 90 t b b b b;
#X obj 126 394 outlet;
#X obj 66 45 t b;
#X floatatom 617 78 5 0 0 0 - - -;
#X msg 628 53 15000;
#X obj 617 27 inlet;
#X text 667 54 highest pitch;
#X obj 778 27 inlet;
#X floatatom 779 78 5 0 0 0 - - -;
#X msg 788 54 2000;
#X floatatom 755 210 5 0 0 0 - - -;
#X floatatom 754 247 5 0 0 0 - - -;
#X floatatom 755 281 5 0 0 0 - - -;
#X floatatom 755 317 5 0 0 0 - - -;
#X text 750 159 Delay;
#X text 704 157 Pitch;
#X floatatom 705 192 5 0 0 0 - - -;
#X floatatom 704 229 5 0 0 0 - - -;
#X floatatom 705 263 5 0 0 0 - - -;
#X floatatom 705 300 5 0 0 0 - - -;
#X floatatom 704 335 5 0 0 0 - - -;
#X text 789 209 ms;
#X text 790 248 ms;
#X text 790 281 ms;
#X text 791 317 ms;
#X text 822 53 maximum delay;
#X connect 0 0 44 0;
#X connect 1 0 21 0;
#X connect 2 0 1 1;
#X connect 2 0 40 1;
#X connect 2 0 53 0;
#X connect 3 0 40 0;
#X connect 4 0 41 0;
#X connect 5 0 42 0;
#X connect 6 0 43 0;
#X connect 8 0 20 0;
#X connect 8 0 24 0;
#X connect 8 0 28 0;
#X connect 8 0 33 0;
#X connect 8 0 38 0;
#X connect 9 0 8 0;
#X connect 11 0 13 0;
#X connect 13 0 20 0;
#X connect 13 0 24 0;
#X connect 13 0 28 0;
#X connect 13 0 33 0;
#X connect 13 0 38 0;
#X connect 13 1 43 0;
#X connect 14 0 45 0;
#X connect 16 0 13 0;
#X connect 16 0 47 0;
#X connect 16 0 52 0;
#X connect 17 0 0 0;
#X connect 18 0 17 0;
#X connect 18 0 59 0;
#X connect 19 0 18 0;
#X connect 20 0 19 0;
#X connect 21 0 0 0;
#X connect 22 0 21 0;
#X connect 22 0 60 0;
#X connect 23 0 22 0;
#X connect 24 0 23 0;
#X connect 25 0 0 0;
#X connect 26 0 25 0;
#X connect 26 0 61 0;
#X connect 27 0 26 0;
#X connect 28 0 27 0;
#X connect 29 0 25 0;
#X connect 30 0 0 0;
#X connect 31 0 30 0;
#X connect 31 0 62 0;
#X connect 32 0 31 0;
#X connect 33 0 32 0;
#X connect 34 0 30 0;
#X connect 35 0 0 0;
#X connect 36 0 35 0;
#X connect 36 0 63 0;
#X connect 37 0 36 0;
#X connect 38 0 37 0;
#X connect 39 0 35 0;
#X connect 40 0 29 1;
#X connect 40 0 41 1;
#X connect 40 0 54 0;
#X connect 41 0 34 1;
#X connect 41 0 42 1;
#X connect 41 0 55 0;
#X connect 42 0 39 1;
#X connect 42 0 56 0;
#X connect 43 0 5 0;
#X connect 43 1 4 0;
#X connect 43 2 3 0;
#X connect 43 3 2 0;
#X connect 45 0 17 0;
#X connect 45 0 1 0;
#X connect 45 0 29 0;
#X connect 45 0 34 0;
#X connect 45 0 39 0;
#X connect 46 0 38 1;
#X connect 46 0 33 1;
#X connect 46 0 28 1;
#X connect 46 0 24 1;
#X connect 46 0 20 1;
#X connect 47 0 46 0;
#X connect 48 0 46 0;
#X connect 50 0 51 0;
#X connect 51 0 2 1;
#X connect 51 0 3 1;
#X connect 51 0 4 1;
#X connect 51 0 5 1;
#X connect 52 0 51 0;
