#N canvas 234 221 347 430 10;
#X obj 101 -155 tgl 15 0 empty empty empty 17 7 0 10 -262144 -1 -1
0 1;
#X obj 102 136 line;
#X obj 101 -128 metro 700;
#X floatatom 202 -53 5 0 0 0 - - -;
#X msg 223 -76 700;
#X obj 223 -101 loadbang;
#X obj 217 -26 / 2;
#X floatatom 224 -6 5 0 0 0 - - -;
#X obj 101 -182 inlet;
#X obj 202 -185 inlet;
#X obj 102 193 outlet;
#X text 136 -181 on/off;
#X text 246 -185 set period;
#X obj 101 -102 bang;
#X msg 33 74 set 0.75 \$1;
#X msg 21 102 0.75 114.5;
#X obj 102 22 del 350;
#X msg 102 101 0.25 114.5;
#X msg 112 73 set 0.25 \$1;
#X connect 0 0 2 0;
#X connect 1 0 10 0;
#X connect 2 0 13 0;
#X connect 3 0 2 1;
#X connect 3 0 6 0;
#X connect 4 0 3 0;
#X connect 5 0 4 0;
#X connect 6 0 7 0;
#X connect 6 0 14 0;
#X connect 6 0 18 0;
#X connect 6 0 16 1;
#X connect 8 0 0 0;
#X connect 9 0 3 0;
#X connect 13 0 15 0;
#X connect 13 0 16 0;
#X connect 14 0 15 0;
#X connect 15 0 1 0;
#X connect 16 0 17 0;
#X connect 17 0 1 0;
#X connect 18 0 17 0;
