#N canvas 91 50 379 305 10;
#X obj -203 11 +~;
#X obj -218 -18 freeverb~;
#X obj -199 -68 hsl 200 20 0 1 0 0 empty empty reverb_mix 20 10 0 14
-257472 -1 -1 0 1;
#N canvas 613 434 450 300 reverb 0;
#X obj 119 -107 -;
#X msg 119 -127 1 \$1;
#X obj 68 -183 inlet;
#X obj 77 33 outlet;
#X msg 58 -44 wet \$1;
#X msg 120 -44 dry \$1;
#X connect 0 0 5 0;
#X connect 1 0 0 0;
#X connect 2 0 1 0;
#X connect 2 0 4 0;
#X connect 4 0 3 0;
#X connect 5 0 3 0;
#X restore -202 -43 pd reverb;
#X text -204 -87 dry;
#X text -17 -87 wet;
#X obj -178 -115 loadbang;
#X msg -178 -91 0;
#X obj -274 -175 inlet~;
#X text -275 -195 audio in;
#X obj -203 43 outlet~;
#X obj -203 -173 inlet;
#X text -202 -195 mix;
#X text -159 -167 range: 0 - 1;
#X connect 0 0 10 0;
#X connect 1 0 0 0;
#X connect 1 1 0 1;
#X connect 2 0 3 0;
#X connect 3 0 1 0;
#X connect 6 0 7 0;
#X connect 7 0 2 0;
#X connect 8 0 1 0;
#X connect 11 0 2 0;
