#N canvas 625 65 777 679 10;
#X declare -lib tof;
#X obj 167 19 bng 15 250 50 0 empty empty empty 17 7 0 10 -4034 -1
-1;
#X obj 167 38 folderpanel;
#X obj 167 97 makefilename %s/*;
#X obj 167 119 folder_list;
#X obj 167 141 symbol2list /;
#X obj 167 163 t l l;
#X obj 212 188 list length;
#X obj 212 210 - 1;
#X obj 167 234 list-idx;
#X obj 167 257 t l l;
#X obj 200 284 symbol2list .;
#X obj 200 306 t l l;
#X obj 245 331 list length;
#X obj 245 353 - 1;
#X obj 200 377 list-idx;
#X obj 200 400 sel wav;
#X msg 200 422 1;
#X msg 239 421 0;
#X obj 167 448 spigot;
#X obj 167 604 msgfile;
#X msg 289 514 clear;
#X msg 167 553 add \$1;
#X obj 167 470 list prepend;
#X obj 167 492 list2symbol /;
#X msg 50 516 rewind \, flush;
#X text 278 92 <-- tell [folder_list] to output all files and folders
within the folder;
#X text 252 393 <-- add extensions for whatever file type you want
to use and connect its output to [1(;
#X text 93 182 strip path;
#X text 34 324 filter unwanted files;
#X text 260 490 <-- add path back to file;
#X text 688 605 .mmb;
#X obj 167 60 trigger symbol symbol bang bang;
#X obj 379 564 f 0;
#X obj 412 564 + 1;
#X msg 394 539 0;
#X text 440 545 count how many files are loaded;
#X obj 367 589 random 1;
#X obj 167 514 t s b;
#X obj 341 564 bng 15 250 50 0 empty empty empty 17 7 0 10 -4034 -1
-1;
#X msg 367 611 goto \$1 \, this;
#X text 268 561 random file;
#X text 186 16 <-- click me and choose a folder;
#X obj 656 12 import tof;
#X text 634 30 (for [folderpanel]);
#X obj 167 -5 inlet;
#X obj 75 -5 inlet;
#X obj 167 635 outlet;
#X text 72 -25 generate file;
#X text 164 -26 specify folder;
#X connect 0 0 1 0;
#X connect 1 0 31 0;
#X connect 2 0 3 0;
#X connect 3 0 4 0;
#X connect 4 0 5 0;
#X connect 5 0 8 0;
#X connect 5 1 6 0;
#X connect 6 0 7 0;
#X connect 7 0 8 1;
#X connect 8 0 9 0;
#X connect 9 0 18 0;
#X connect 9 1 10 0;
#X connect 10 0 11 0;
#X connect 11 0 14 0;
#X connect 11 1 12 0;
#X connect 12 0 13 0;
#X connect 13 0 14 1;
#X connect 14 0 15 0;
#X connect 15 0 16 0;
#X connect 15 1 17 0;
#X connect 16 0 18 1;
#X connect 17 0 18 1;
#X connect 18 0 22 0;
#X connect 19 0 46 0;
#X connect 20 0 19 0;
#X connect 21 0 19 0;
#X connect 22 0 23 0;
#X connect 23 0 37 0;
#X connect 24 0 19 0;
#X connect 31 0 2 0;
#X connect 31 1 22 1;
#X connect 31 2 20 0;
#X connect 31 3 34 0;
#X connect 32 0 33 0;
#X connect 33 0 32 1;
#X connect 33 0 36 1;
#X connect 34 0 32 1;
#X connect 36 0 39 0;
#X connect 37 0 21 0;
#X connect 37 1 32 0;
#X connect 38 0 36 0;
#X connect 39 0 19 0;
#X connect 44 0 0 0;
#X connect 45 0 38 0;
