#N canvas 452 195 655 584 10;
#X msg -303 171 1;
#X obj -261 263 vsl 15 128 0 1 0 0 empty empty sample_dry 0 -8 0 8
-262144 -1 -1 0 1;
#X obj -276 403 *~;
#X obj -276 227 +~;
#X obj -7 425 *~;
#X obj 8 286 vsl 15 128 0 1 0 0 empty empty sample_wet 0 -8 0 8 -262144
-1 -1 0 1;
#X floatatom 68 205 5 0 0 0 - - -;
#X text 66 183 delay time (s);
#X obj -7 253 delay~ 522050;
#X obj 68 228 * 44100;
#X obj -276 200 readsf~ 2;
#X text -307 92 PLAY A SAMPLE;
#X obj -206 226 gate 1;
#X obj -206 198 tgl 15 0 empty empty empty 17 7 0 10 -262144 -1 -1
0 1;
#X text -189 195 loop on/off;
#X msg -276 171 open samples/pd_bell.aiff;
#X obj -199 82 loadbang;
#X symbolatom -198 129 20 0 0 0 - - -;
#X msg -198 105 set samples/pd_bell.aiff;
#X obj -303 26 inlet;
#X obj -186 25 inlet;
#X obj -62 30 inlet;
#X text -68 9 Toggle Loop on/off;
#X text -188 8 Set filename;
#X text -303 9 Trigger;
#X obj 176 28 inlet;
#X text 172 11 Level;
#X obj -275 475 outlet~;
#X obj -303 122 t b b b;
#X msg -198 151 set open \$1;
#X obj 70 32 inlet;
#X text 66 15 delay time (s);
#X obj 224 27 inlet;
#X text 220 10 Delay Level;
#X connect 0 0 10 0;
#X connect 1 0 2 1;
#X connect 2 0 27 0;
#X connect 3 0 2 0;
#X connect 3 0 8 0;
#X connect 4 0 27 0;
#X connect 5 0 4 1;
#X connect 6 0 9 0;
#X connect 8 0 4 0;
#X connect 9 0 8 1;
#X connect 10 0 3 0;
#X connect 10 1 3 1;
#X connect 10 2 12 1;
#X connect 12 0 28 0;
#X connect 13 0 12 0;
#X connect 15 0 10 0;
#X connect 16 0 18 0;
#X connect 17 0 29 0;
#X connect 18 0 17 0;
#X connect 19 0 28 0;
#X connect 20 0 17 0;
#X connect 21 0 13 0;
#X connect 25 0 1 0;
#X connect 28 0 0 0;
#X connect 28 1 15 0;
#X connect 28 2 17 0;
#X connect 29 0 15 0;
#X connect 30 0 6 0;
#X connect 32 0 5 0;
